<svg width="190" height="198" viewBox="0 0 190 198" fill="none" xmlns="http://www.w3.org/2000/svg">
<rect x="17" y="50" width="155" height="10" rx="4" fill="url(#paint0_linear_0_70)"/>
<rect width="190" height="26" rx="8" fill="url(#paint1_linear_0_70)"/>
<rect y="76" width="190" height="10" rx="4" fill="url(#paint2_linear_0_70)"/>
<rect x="10" y="102" width="170" height="10" rx="4" fill="url(#paint3_linear_0_70)"/>
<rect x="15" y="128" width="160" height="10" rx="4" fill="url(#paint4_linear_0_70)"/>
<rect x="25" y="154" width="140" height="10" rx="4" fill="url(#paint5_linear_0_70)"/>
<rect x="55" y="188" width="80" height="10" rx="4" fill="url(#paint6_linear_0_70)"/>
<defs>
<linearGradient id="paint0_linear_0_70" x1="17" y1="55" x2="172" y2="55" gradientUnits="userSpaceOnUse">
<stop stop-color="#3C3C3C"/>
<stop offset="0.510417" stop-color="#444444"/>
<stop offset="1" stop-color="#333333"/>
</linearGradient>
<linearGradient id="paint1_linear_0_70" x1="0" y1="13" x2="190" y2="13" gradientUnits="userSpaceOnUse">
<stop stop-color="#3C3C3C"/>
<stop offset="0.510417" stop-color="#444444"/>
<stop offset="1" stop-color="#333333"/>
</linearGradient>
<linearGradient id="paint2_linear_0_70" x1="0" y1="81" x2="190" y2="81" gradientUnits="userSpaceOnUse">
<stop stop-color="#3C3C3C"/>
<stop offset="0.510417" stop-color="#444444"/>
<stop offset="1" stop-color="#333333"/>
</linearGradient>
<linearGradient id="paint3_linear_0_70" x1="10" y1="107" x2="180" y2="107" gradientUnits="userSpaceOnUse">
<stop stop-color="#3C3C3C"/>
<stop offset="0.510417" stop-color="#444444"/>
<stop offset="1" stop-color="#333333"/>
</linearGradient>
<linearGradient id="paint4_linear_0_70" x1="15" y1="133" x2="175" y2="133" gradientUnits="userSpaceOnUse">
<stop stop-color="#3C3C3C"/>
<stop offset="0.510417" stop-color="#444444"/>
<stop offset="1" stop-color="#333333"/>
</linearGradient>
<linearGradient id="paint5_linear_0_70" x1="25" y1="159" x2="165" y2="159" gradientUnits="userSpaceOnUse">
<stop stop-color="#3C3C3C"/>
<stop offset="0.510417" stop-color="#444444"/>
<stop offset="1" stop-color="#333333"/>
</linearGradient>
<linearGradient id="paint6_linear_0_70" x1="55" y1="193" x2="135" y2="193" gradientUnits="userSpaceOnUse">
<stop stop-color="#3C3C3C"/>
<stop offset="0.510417" stop-color="#444444"/>
<stop offset="1" stop-color="#333333"/>
</linearGradient>
</defs>
</svg>
